Coordinates
version=1
nRows=13
nColumns=34
inDegrees=yes

Units are S.I. units (second, meters, Newtons, ...)
If the header above contains a line with 'inDegrees', this indicates whether rotational values are in degrees (yes) or radians (no).

endheader
time	pelvis_tilt	pelvis_list	pelvis_rotation	pelvis_tx	pelvis_ty	pelvis_tz	hip_flexion_r	hip_adduction_r	hip_rotation_r	knee_angle_r	ankle_angle_r	subtalar_angle_r	mtp_angle_r	hip_flexion_l	hip_adduction_l	hip_rotation_l	knee_angle_l	ankle_angle_l	subtalar_angle_l	mtp_angle_l	lumbar_extension	lumbar_bending	lumbar_rotation	arm_flex_r	arm_add_r	arm_rot_r	elbow_flex_r	pro_sup_r	arm_flex_l	arm_add_l	arm_rot_l	elbow_flex_l	pro_sup_l
      0.00000000	     -4.01781231	     -1.19503792	      1.38805092	     -2.37945214	      0.92815925	      0.66678426	      9.72805412	     -2.05580923	     -0.59547147	      4.77933665	     -0.85584939	    -10.95654066	      0.00000000	      0.60213352	     -6.42096630	    -14.44174552	      0.00000000	      8.03669809	     -1.84653353	      0.00000000	     -3.65985528	      2.58035401	     -5.00282729	      9.58555261	    -11.45902753	     29.29241698	     14.96720587	     71.57109735	      3.67156531	     -9.36185899	     16.23550657	     29.40309082	     68.15536941
      0.01666670	     -7.56160262	     -1.44310744	      0.60268516	     -2.37552251	      0.92024932	      0.66555407	     13.17043293	     -2.18437770	     -2.32720546	      4.69566047	      3.26342098	     -4.55357062	      0.00000000	      4.27336976	     -6.51219987	    -19.46724991	      0.00000000	     10.06282683	      2.53795556	      0.00000000	      2.13707872	      2.75661797	     -3.95512934	      7.99249265	    -11.07563986	     26.35247508	     12.55104956	     71.30149519	      3.55424375	     -8.32197177	     14.85598194	     27.36915473	     68.63146242
      0.03333330	     -8.04442125	     -1.18679249	     -0.37054774	     -2.37513642	      0.91976630	      0.66643873	     13.28120133	     -2.33256759	     -2.25049433	      3.55310532	      3.73209008	     -3.16685470	      0.00000000	      4.64379696	     -6.60502742	    -22.00982913	      0.00000000	      9.55037088	      3.69240219	      0.00000000	      3.26559622	      2.44052613	     -3.24230529	      7.99255357	    -10.74803780	     24.99834534	     12.15380160	     71.22684809	      3.41327213	     -8.68861187	     14.85145162	     27.28901366	     69.03095356
      0.05000000	     -7.77883483	     -1.08612338	     -0.52309116	     -2.37569882	      0.91956556	      0.66643330	     12.41255234	     -2.36610012	     -2.55129897	      2.24741498	      4.27064478	     -1.29865164	      0.00000000	      4.29785354	     -6.69175828	    -23.58065463	      0.00000000	      9.81225058	      5.24330550	      0.00000000	      3.20765917	      2.30852315	     -3.21476809	      8.09965094	    -10.50497014	     23.11589215	     11.98859035	     70.94813131	      3.40405766	     -9.14273200	     15.04486088	     27.24154948	     69.40961533
      0.06666670	     -7.79140710	     -0.99722956	     -0.65687273	     -2.37606272	      0.91987422	      0.66650473	     12.06039179	     -2.34587666	     -2.09485008	      1.32984915	      4.33161586	     -0.84447159	      0.00000000	      4.28047185	     -6.65221335	    -23.82351255	      0.00000000	      9.81434351	      5.30951934	      0.00000000	      3.33726629	      2.36266953	     -3.21502936	      8.12013434	    -10.45858101	     22.76847024	     12.03553956	     70.88096445	      3.35391326	     -9.36790211	     15.04985112	     27.16746528	     69.43344023
      0.08333330	     -7.21951789	     -0.99480900	     -0.53778183	     -2.37583968	      0.92210409	      0.66628943	     11.06073722	     -2.29638417	     -2.20753219	      0.55921707	      4.60387000	      0.24574756	      0.00000000	      3.65041325	     -6.63249662	    -24.58876835	      0.00000000	     10.19197004	      6.74249110	      0.00000000	      2.58338031	      2.40891415	     -3.21325253	      8.24377019	    -10.23611589	     20.16861249	     12.01520018	     70.26034408	      3.76702768	     -9.46877095	     15.12331633	     26.91180815	     69.31497417
      0.10000000	     -7.28975460	     -0.98981509	     -0.47090631	     -2.37522940	      0.92369149	      0.66617739	     10.84608407	     -2.28092468	     -1.93728877	      0.00000000	      4.34661573	      0.59936988	      0.00000000	      3.70142425	     -6.58705861	    -24.59618253	      0.00000000	     10.04927364	      6.83210965	      0.00000000	      2.61778129	      2.44853960	     -3.18905172	      8.33007049	    -10.16848558	     19.99376523	     12.07429140	     70.22346393	      3.89114951	     -9.48269364	     15.12044303	     26.90762278	     69.28363381
      0.11666670	     -7.30981310	     -0.97847572	     -0.36883915	     -2.37493274	      0.92391188	      0.66613472	     10.77096321	     -2.30569975	     -1.88848250	      0.00000000	      4.31122571	      0.65955655	      0.00000000	      3.69526906	     -6.52148320	    -24.60751103	      0.00000000	     10.02220775	      6.85264594	      0.00000000	      2.62158626	      2.53289170	     -3.15245215	      8.36288393	    -10.13200745	     19.97303961	     12.09043645	     70.21831739	      3.90268437	     -9.47989818	     15.11824303	     26.90660657	     69.27763186
      0.13333330	     -6.60917451	     -0.97685606	     -0.33299032	     -2.37528855	      0.92349383	      0.66626270	      9.91612773	     -2.33994112	     -2.35222598	      0.00000000	      4.68615745	      2.11569027	      0.00000000	      2.89210414	     -6.47196045	    -25.15120139	      0.00000000	     10.02658103	      7.78045309	      0.00000000	      1.58294046	      2.60954711	     -2.93564941	      8.59692632	    -10.04508892	     18.61096511	     12.14082003	     69.86630683	      4.34246623	     -9.26568187	     15.00908306	     26.72795225	     68.83856136
      0.15000000	     -6.64390037	     -0.98724010	     -0.23038722	     -2.37549577	      0.92290821	      0.66637096	      9.84775966	     -2.34959836	     -2.32481264	      0.00000000	      4.66054558	      2.15011678	      0.00000000	      2.93269318	     -6.45960877	    -25.16189815	      0.00000000	      9.99619333	      7.79803980	      0.00000000	      1.60266674	      2.64372246	     -2.87340956	      8.66845570	    -10.04086455	     18.59475463	     12.16485305	     69.86314771	      4.34459727	     -9.27469099	     15.00546104	     26.72857591	     68.83143239
      0.16666670	     -6.65970669	     -1.02786534	     -0.19836812	     -2.37554846	      0.92280357	      0.66605748	      9.79151904	     -2.33148877	     -2.29535205	      0.00000000	      4.52782065	      2.31515016	      0.00000000	      2.95652661	     -6.48228361	    -25.16067548	      0.00000000	      9.74114567	      7.98179233	      0.00000000	      1.57660560	      2.79287148	     -2.79758201	      8.88086496	    -10.11500018	     18.50054683	     12.23071613	     69.84282679	      4.48810015	     -9.20002441	     14.99295741	     26.79146166	     68.78980861
      0.18333330	     -6.69568673	     -1.05522370	     -0.15309461	     -2.37506391	      0.92331680	      0.66554376	      9.71794421	     -2.33460032	     -2.29174326	      0.00000000	      4.50919768	      2.33432094	      0.00000000	      2.97985481	     -6.49164986	    -25.17791372	      0.00000000	      9.72254876	      7.99432100	      0.00000000	      1.56299702	      2.80711547	     -2.75504065	      8.90995214	    -10.11268326	     18.49133628	     12.24127178	     69.84086288	      4.46662175	     -9.20132885	     14.99088496	     26.78747083	     68.78439750
      0.20000000	     -5.96135200	     -1.21563567	     -0.18512018	     -2.37513745	      0.92494251	      0.66531475	      8.87622350	     -2.18224047	     -2.70067289	      0.00000000	      4.49740840	      3.19136522	      0.00000000	      2.20322075	     -6.68272215	    -25.96133024	      0.00000000	      9.67154290	      9.24985940	      0.00000000	      0.50081518	      3.07696873	     -2.44350729	      9.03528626	    -10.25121537	     17.62684243	     12.59267891	     69.64276441	      4.66584204	     -9.06216234	     14.66110718	     27.10944549	     68.22553523
